<?xml version="1.0" standalone="no"?>
<!DOCTYPE svg PUBLIC "-//W3C//DTD SVG 20010904//EN"
 "http://www.w3.org/TR/2001/REC-SVG-20010904/DTD/svg10.dtd">
<svg version="1.0" xmlns="http://www.w3.org/2000/svg"
 width="187.000000pt" height="257.000000pt" viewBox="0 0 187.000000 257.000000"
 preserveAspectRatio="xMidYMid meet">

<g transform="translate(0.000000,257.000000) scale(0.100000,-0.100000)"
fill="#000000" stroke="none">
<path d="M903 2555 c-19 -8 -49 -40 -78 -82 -69 -97 -110 -138 -191 -189 -39
-24 -74 -44 -77 -44 -9 0 -147 -89 -164 -105 -7 -8 -23 -22 -36 -32 -26 -21
-128 -142 -173 -205 -41 -58 -98 -188 -128 -292 -134 -459 37 -971 404 -1215
34 -23 63 -41 65 -41 2 0 32 -17 67 -37 83 -49 160 -122 219 -210 53 -79 72
-93 118 -93 49 0 74 18 121 88 63 93 134 160 232 214 134 76 186 113 257 181
175 169 296 420 316 657 4 41 8 91 10 110 6 56 -13 223 -35 312 -74 296 -252
529 -510 667 -118 63 -184 124 -263 241 -35 53 -50 66 -83 76 -32 9 -47 9 -71
-1z"/>
</g>
</svg>
