<?xml version="1.0" standalone="no"?>
<!DOCTYPE svg PUBLIC "-//W3C//DTD SVG 20010904//EN"
 "http://www.w3.org/TR/2001/REC-SVG-20010904/DTD/svg10.dtd">
<svg version="1.0" xmlns="http://www.w3.org/2000/svg"
 width="2049.000000pt" height="2818.000000pt" viewBox="0 0 2049.000000 2818.000000"
 preserveAspectRatio="xMidYMid meet">

<g transform="translate(0.000000,2818.000000) scale(0.100000,-0.100000)"
fill="#000000" stroke="none">
<path d="M10116 28169 c-80 -11 -221 -56 -303 -98 -32 -16 -92 -57 -133 -90
-41 -33 -77 -58 -80 -56 -4 2 -33 -23 -65 -55 -33 -33 -55 -60 -51 -60 5 0
-15 -26 -45 -57 -68 -73 -184 -211 -274 -328 -38 -49 -74 -92 -79 -94 -14 -6
-56 -53 -56 -63 0 -5 5 -6 12 -2 6 4 -1 -11 -18 -34 -16 -22 -31 -36 -33 -31
-4 14 -91 -107 -91 -127 0 -10 -32 -60 -71 -113 -85 -114 -93 -123 -83 -96 10
27 -119 -142 -141 -185 -25 -51 -125 -180 -139 -180 -14 0 -131 -139 -131
-156 0 -25 -255 -302 -273 -296 -5 1 -19 -10 -30 -25 -11 -15 -81 -84 -156
-153 -74 -69 -136 -130 -136 -137 0 -16 -283 -243 -303 -243 -9 0 -22 -9 -29
-21 -16 -26 -171 -139 -191 -139 -8 0 -28 -13 -43 -29 -48 -47 -426 -291 -452
-291 -15 0 -144 -78 -157 -95 -14 -17 -316 -192 -428 -248 -51 -25 -135 -66
-187 -91 -187 -89 -940 -561 -1364 -855 -66 -46 -128 -84 -137 -86 -27 -5
-126 -81 -189 -143 -30 -31 -67 -62 -81 -71 -31 -19 -190 -167 -169 -157 21
10 -37 -41 -155 -137 -55 -45 -102 -80 -105 -78 -3 2 -10 -6 -16 -18 -17 -32
-66 -81 -81 -81 -8 0 -16 -8 -20 -17 -3 -10 -49 -65 -102 -123 -52 -58 -99
-109 -104 -115 -5 -6 -5 -1 -1 10 11 27 -89 -81 -118 -128 -32 -54 -139 -177
-152 -177 -14 0 -131 -137 -131 -154 0 -16 -245 -307 -254 -302 -10 7 -131
-140 -136 -165 -4 -18 -72 -109 -82 -109 -2 0 -1 5 2 10 3 6 4 10 2 10 -10 0
-156 -187 -169 -215 -20 -47 -186 -256 -191 -242 -2 6 -10 -1 -17 -18 -22 -53
-26 -60 -49 -70 -12 -5 -25 -21 -28 -35 -8 -31 -73 -120 -88 -120 -6 0 -21
-13 -33 -30 -13 -16 -18 -30 -13 -30 5 0 -37 -69 -93 -152 -56 -84 -126 -195
-155 -245 -30 -51 -59 -93 -65 -93 -14 0 -85 -129 -83 -150 3 -21 -175 -370
-189 -370 -10 0 -34 -44 -81 -148 -13 -29 -19 -51 -13 -47 5 3 10 4 10 2 0 -2
-40 -93 -88 -203 -49 -109 -111 -252 -138 -316 -27 -65 -54 -118 -60 -118 -15
0 -95 -198 -83 -202 5 -2 -33 -116 -84 -253 -52 -138 -106 -285 -121 -327 -16
-43 -32 -75 -37 -72 -5 3 -9 4 -9 2 0 -2 -16 -47 -35 -100 -20 -56 -30 -98
-24 -100 6 -2 -22 -108 -65 -251 -42 -137 -76 -255 -76 -264 0 -9 -6 -13 -14
-10 -10 4 -24 -33 -55 -150 -25 -91 -38 -160 -33 -165 5 -5 -11 -93 -39 -211
-27 -111 -49 -210 -49 -220 0 -10 -6 -20 -14 -23 -18 -7 -41 -95 -27 -104 13
-8 -36 -269 -55 -290 -7 -9 -22 -67 -33 -129 -24 -134 -24 -124 -11 -116 13 8
13 -8 -5 -118 -8 -50 -26 -182 -40 -292 -14 -110 -32 -213 -39 -230 -14 -30
-38 -251 -55 -515 -13 -188 -13 -1317 -1 -1395 17 -107 32 -477 21 -488 -15
-15 -14 -45 3 -54 15 -9 48 -296 34 -301 -13 -6 -9 -60 5 -69 8 -5 18 -49 26
-118 6 -60 19 -158 27 -218 11 -73 13 -111 6 -120 -7 -8 -6 -39 4 -97 7 -47
14 -88 14 -92 0 -5 5 -7 12 -5 7 1 15 -19 21 -53 4 -30 21 -124 37 -209 19
-96 26 -159 20 -166 -5 -6 -5 -27 0 -50 4 -22 13 -66 20 -98 6 -31 15 -55 20
-52 11 7 13 -3 44 -140 17 -72 22 -112 15 -116 -13 -8 7 -89 26 -104 17 -13
105 -353 93 -357 -13 -5 1 -58 16 -58 14 0 141 -424 131 -439 -9 -15 97 -331
111 -331 6 0 48 -100 94 -223 108 -289 234 -591 355 -852 54 -115 112 -248
130 -295 42 -112 105 -235 147 -291 19 -24 67 -105 108 -179 232 -426 574
-955 871 -1349 101 -134 198 -267 216 -297 44 -74 379 -472 407 -483 6 -2 140
-135 297 -295 158 -160 357 -354 443 -431 86 -77 156 -144 156 -150 0 -13 140
-130 156 -130 6 0 36 -21 65 -46 30 -25 119 -97 199 -159 80 -62 144 -117 143
-121 -3 -8 35 -33 50 -34 16 0 205 -140 204 -149 -1 -6 12 -15 28 -21 35 -12
303 -189 325 -215 19 -22 145 -107 136 -91 -4 7 15 -2 44 -20 28 -17 49 -34
46 -37 -7 -6 160 -112 186 -117 10 -2 42 -18 70 -35 28 -17 74 -42 103 -55 74
-32 258 -135 270 -150 12 -16 206 -125 221 -125 17 0 294 -160 294 -170 0 -10
66 -50 82 -50 25 0 357 -226 398 -270 34 -37 292 -235 306 -235 17 0 243 -196
419 -362 455 -429 782 -817 1191 -1413 92 -135 201 -289 242 -344 41 -54 77
-108 81 -121 13 -50 267 -315 301 -315 7 0 33 -15 59 -34 146 -107 323 -156
558 -156 l143 0 2 202 3 203 46 -125 c26 -69 57 -155 70 -192 22 -63 25 -67
49 -61 14 3 28 9 33 12 4 4 -26 77 -67 162 -96 201 -114 252 -97 273 7 9 22
16 32 16 26 0 205 -79 378 -167 80 -40 152 -71 161 -68 18 6 76 63 69 68 -2 2
-71 25 -154 50 -170 53 -390 134 -425 158 -18 12 -22 21 -17 41 9 33 70 59
385 165 221 74 234 77 260 63 59 -33 105 -188 86 -294 -13 -68 -10 -66 86 54
79 99 80 103 54 228 -84 414 -463 753 -881 789 l-73 6 0 1032 0 1032 73 6
c157 14 348 86 485 184 190 135 337 355 393 590 28 114 30 338 5 458 -90 421
-464 756 -883 792 l-73 6 0 1032 0 1032 73 6 c157 14 348 86 485 184 190 135
337 355 393 590 28 114 30 338 5 458 -90 421 -464 756 -883 792 l-73 6 0 1032
0 1032 73 6 c157 14 348 86 485 184 190 135 337 355 393 590 28 114 30 338 5
458 -90 421 -464 756 -883 792 l-73 6 0 1032 0 1032 64 7 c153 15 341 88 474
183 190 135 337 355 393 590 28 114 30 338 5 458 -89 416 -455 748 -872 791
l-64 7 0 1032 0 1032 64 7 c153 15 341 88 474 183 190 135 337 355 393 590 28
114 30 338 5 458 -89 416 -455 748 -872 791 l-64 7 0 1032 0 1032 64 7 c153
15 341 88 474 183 190 135 337 355 393 590 28 114 30 338 5 458 -89 416 -455
748 -872 791 l-64 7 0 998 0 999 -37 -1 c-21 -1 -69 -6 -107 -10z m210 -2165
c64 -22 102 -50 110 -79 4 -15 -7 -67 -26 -131 -34 -113 -137 -404 -145 -412
-3 -3 -5 139 -5 316 0 177 4 322 8 322 5 0 31 -7 58 -16z m362 -149 c67 -31
170 -133 200 -197 32 -68 30 -121 -5 -146 -99 -69 -538 -276 -574 -270 -40 6
-45 31 -20 95 41 102 239 497 261 521 27 29 71 28 138 -3z m295 -465 c65 -51
94 -243 54 -358 -21 -60 -61 -112 -85 -112 -50 0 -559 175 -612 211 -18 12
-22 21 -17 41 6 21 22 32 81 57 92 38 515 181 537 181 9 0 28 -9 42 -20z
m-546 -347 c132 -57 431 -209 456 -230 66 -60 -53 -261 -196 -333 -72 -36
-118 -39 -146 -8 -25 26 -243 463 -268 535 -14 43 -15 54 -4 67 20 24 41 20
158 -31z m-62 -402 c36 -107 65 -205 65 -219 0 -34 -48 -74 -112 -95 -30 -9
-58 -17 -61 -17 -4 0 -7 145 -7 323 l1 322 25 -59 c13 -33 53 -147 89 -255z
m-49 -2737 c64 -22 102 -50 110 -79 4 -15 -7 -67 -26 -131 -34 -113 -137 -404
-145 -412 -3 -3 -5 139 -5 316 0 177 4 322 8 322 5 0 31 -7 58 -16z m362 -149
c67 -31 170 -133 200 -197 32 -68 30 -121 -5 -146 -99 -69 -538 -276 -574
-270 -40 6 -45 31 -20 95 41 102 239 497 261 521 27 29 71 28 138 -3z m295
-465 c65 -51 94 -243 54 -358 -21 -60 -61 -112 -85 -112 -50 0 -559 175 -612
211 -18 12 -22 21 -17 41 6 21 22 32 81 57 92 38 515 181 537 181 9 0 28 -9
42 -20z m-546 -347 c132 -57 431 -209 456 -230 66 -60 -53 -261 -196 -333 -72
-36 -118 -39 -146 -8 -25 26 -243 463 -268 535 -14 43 -15 54 -4 67 20 24 41
20 158 -31z m-62 -402 c36 -107 65 -205 65 -219 0 -34 -48 -74 -112 -95 -30
-9 -58 -17 -61 -17 -4 0 -7 145 -7 323 l1 322 25 -59 c13 -33 53 -147 89 -255z
m-49 -2737 c64 -22 102 -50 110 -79 4 -15 -7 -67 -26 -131 -34 -113 -137 -404
-145 -412 -3 -3 -5 139 -5 316 0 177 4 322 8 322 5 0 31 -7 58 -16z m362 -149
c67 -31 170 -133 200 -197 32 -68 30 -121 -5 -146 -99 -69 -538 -276 -574
-270 -40 6 -45 31 -20 95 41 102 239 497 261 521 27 29 71 28 138 -3z m295
-465 c65 -51 94 -243 54 -358 -21 -60 -61 -112 -85 -112 -50 0 -559 175 -612
211 -18 12 -22 21 -17 41 6 21 22 32 81 57 92 38 515 181 537 181 9 0 28 -9
42 -20z m-546 -347 c132 -57 431 -209 456 -230 66 -60 -53 -261 -196 -333 -72
-36 -118 -39 -146 -8 -25 26 -243 463 -268 535 -14 43 -15 54 -4 67 20 24 41
20 158 -31z m-62 -402 c36 -107 65 -205 65 -219 0 -34 -48 -74 -112 -95 -30
-9 -58 -17 -61 -17 -4 0 -7 145 -7 323 l1 322 25 -59 c13 -33 53 -147 89 -255z
m-29 -2737 c64 -22 102 -50 110 -79 7 -28 -33 -167 -111 -384 -91 -253 -83
-265 -84 132 -1 393 -9 362 85 331z m362 -149 c67 -31 170 -133 200 -197 32
-68 30 -121 -5 -146 -99 -69 -538 -276 -574 -270 -40 6 -45 31 -20 95 41 102
239 497 261 521 27 29 71 28 138 -3z m295 -465 c65 -51 94 -243 54 -358 -21
-60 -61 -112 -85 -112 -50 0 -559 175 -612 211 -18 12 -22 21 -17 41 6 21 22
32 81 57 92 38 515 181 537 181 9 0 28 -9 42 -20z m-546 -347 c132 -57 431
-209 456 -230 66 -60 -53 -261 -196 -333 -72 -36 -118 -39 -146 -8 -25 26
-243 463 -268 535 -14 43 -15 54 -4 67 20 24 41 20 158 -31z m-149 -153 c61
-160 152 -441 152 -468 0 -34 -48 -75 -112 -95 -97 -30 -88 -63 -88 330 0 190
2 344 4 342 2 -2 22 -51 44 -109z m38 -2986 c64 -22 102 -50 110 -79 7 -28
-33 -167 -111 -384 -91 -253 -83 -265 -84 132 -1 393 -9 362 85 331z m362
-149 c67 -31 170 -133 200 -197 32 -68 30 -121 -5 -146 -99 -69 -538 -276
-574 -270 -40 6 -45 31 -20 95 41 102 239 497 261 521 27 29 71 28 138 -3z
m295 -465 c65 -51 94 -243 54 -358 -21 -60 -61 -112 -85 -112 -50 0 -559 175
-612 211 -18 12 -22 21 -17 41 6 21 22 32 81 57 92 38 515 181 537 181 9 0 28
-9 42 -20z m-546 -347 c132 -57 431 -209 456 -230 66 -60 -53 -261 -196 -333
-72 -36 -118 -39 -146 -8 -25 26 -243 463 -268 535 -14 43 -15 54 -4 67 20 24
41 20 158 -31z m-149 -153 c61 -160 152 -441 152 -468 0 -34 -48 -75 -112 -95
-97 -30 -88 -63 -88 330 0 190 2 344 4 342 2 -2 22 -51 44 -109z m38 -2986
c64 -22 102 -50 110 -79 7 -28 -33 -167 -111 -384 -91 -253 -83 -265 -84 132
-1 393 -9 362 85 331z m362 -149 c67 -31 170 -133 200 -197 32 -68 30 -121 -5
-146 -99 -69 -538 -276 -574 -270 -40 6 -45 31 -20 95 41 102 239 497 261 521
27 29 71 28 138 -3z m295 -465 c65 -51 94 -243 54 -358 -21 -60 -61 -112 -85
-112 -50 0 -559 175 -612 211 -18 12 -22 21 -17 41 6 21 22 32 81 57 92 38
515 181 537 181 9 0 28 -9 42 -20z m-546 -347 c132 -57 431 -209 456 -230 66
-60 -53 -261 -196 -333 -72 -36 -118 -39 -146 -8 -25 26 -243 463 -268 535
-14 43 -15 54 -4 67 20 24 41 20 158 -31z m-149 -153 c61 -160 152 -441 152
-468 0 -34 -48 -75 -112 -95 -97 -30 -88 -63 -88 330 0 190 2 344 4 342 2 -2
22 -51 44 -109z m38 -2986 c64 -22 102 -50 110 -79 7 -28 -33 -167 -111 -384
-91 -253 -83 -265 -84 132 -1 393 -9 362 85 331z m362 -149 c67 -31 170 -133
200 -197 32 -68 30 -121 -5 -146 -99 -69 -538 -276 -574 -270 -40 6 -45 31
-20 95 41 102 239 497 261 521 27 29 71 28 138 -3z"/>
<path d="M10773 27916 c-180 -193 -275 -434 -275 -701 0 -276 97 -517 287
-711 262 -268 631 -368 1003 -273 86 22 255 100 325 151 l47 35 -51 65 -52 66
-51 -24 c-64 -30 -109 -31 -135 -2 -25 26 -243 463 -268 535 -16 49 -16 54 -1
69 15 15 8 28 -90 173 -126 187 -131 193 -97 116 42 -97 22 -142 -52 -116 -21
7 -152 69 -291 137 -283 139 -285 141 -264 221 23 85 106 185 197 239 16 9 9
16 -52 57 -39 26 -78 47 -86 47 -8 0 -50 -38 -94 -84z m154 -502 c170 -53 407
-139 441 -160 13 -9 22 -24 22 -39 0 -15 -9 -30 -22 -39 -29 -18 -349 -134
-490 -177 -129 -39 -144 -35 -185 49 -35 72 -44 200 -19 285 17 57 67 127 91
127 8 0 80 -21 162 -46z m503 -289 c7 -9 10 -27 7 -43 -13 -63 -236 -522 -275
-566 -13 -14 -27 -17 -58 -13 -100 11 -222 108 -274 219 -34 72 -38 110 -12
136 20 20 296 162 452 233 113 52 141 57 160 34z m124 -57 c34 -53 206 -551
206 -596 0 -89 -238 -146 -384 -91 -64 24 -110 70 -101 103 54 187 186 566
208 594 16 20 55 14 71 -10z"/>
<path d="M12359 26058 c-217 -126 -371 -304 -455 -528 -48 -125 -66 -227 -66
-365 0 -276 97 -517 287 -711 178 -182 383 -279 640 -304 300 -28 608 83 820
296 77 77 162 203 209 310 34 78 64 181 55 187 -2 1 -37 24 -76 50 l-73 47
-15 -37 c-19 -45 -53 -83 -74 -83 -26 0 -326 96 -462 147 -157 60 -174 71
-166 105 7 28 47 48 226 111 93 34 94 34 70 50 -13 10 -27 17 -31 17 -4 0 -63
-25 -131 -55 -131 -58 -157 -64 -177 -40 -16 20 -8 49 50 171 l48 103 -23 15
c-22 15 -23 14 -64 -98 -52 -139 -64 -158 -99 -154 -24 3 -32 14 -64 93 -20
50 -70 191 -110 314 l-73 223 -85 90 -85 89 -76 -43z m143 -195 c23 -26 158
-288 223 -432 57 -127 64 -165 33 -185 -25 -15 -57 -2 -346 140 -283 139 -285
141 -264 221 27 99 116 198 222 247 64 30 111 33 132 9z m-235 -499 c170 -53
407 -139 441 -160 13 -9 22 -24 22 -39 0 -15 -9 -30 -22 -39 -29 -18 -349
-134 -490 -177 -129 -39 -144 -35 -185 49 -35 72 -44 200 -19 285 17 57 67
127 91 127 8 0 80 -21 162 -46z m503 -289 c7 -9 10 -27 7 -43 -13 -63 -236
-522 -275 -566 -13 -14 -27 -17 -58 -13 -100 11 -222 108 -274 219 -34 72 -38
110 -12 136 20 20 296 162 452 233 113 52 141 57 160 34z m327 -32 c132 -57
431 -209 456 -230 66 -60 -53 -261 -196 -333 -72 -36 -118 -39 -146 -8 -25 26
-243 463 -268 535 -14 43 -15 54 -4 67 20 24 41 20 158 -31z m-203 -25 c34
-53 206 -551 206 -596 0 -89 -238 -146 -384 -91 -64 24 -110 70 -101 103 54
187 186 566 208 594 16 20 55 14 71 -10z"/>
<path d="M14940 24316 c0 -3 9 -10 20 -16 11 -6 20 -8 20 -6 0 3 -9 10 -20 16
-11 6 -20 8 -20 6z"/>
<path d="M11430 24129 c-311 -31 -608 -217 -765 -482 -100 -166 -147 -337
-147 -532 0 -276 97 -517 287 -711 178 -182 383 -279 640 -304 300 -28 608 83
820 296 123 123 224 306 266 481 28 114 30 338 5 458 -83 390 -411 710 -797
779 -117 20 -210 25 -309 15z m238 -176 c30 -10 68 -30 85 -45 26 -25 29 -33
23 -67 -14 -91 -185 -570 -211 -591 -8 -6 -24 -10 -37 -8 -18 2 -29 20 -56 83
-55 130 -183 525 -177 544 26 83 230 129 373 84z m-486 -140 c23 -26 158 -288
223 -432 57 -127 64 -165 33 -185 -25 -15 -57 -2 -346 140 -283 139 -285 141
-264 221 27 99 116 198 222 247 64 30 111 33 132 9z m846 -8 c67 -31 170 -133
200 -197 32 -68 30 -121 -5 -146 -99 -69 -538 -276 -574 -270 -40 6 -45 31
-20 95 41 102 239 497 261 521 27 29 71 28 138 -3z m-1081 -491 c170 -53 407
-139 441 -160 13 -9 22 -24 22 -39 0 -15 -9 -30 -22 -39 -29 -18 -349 -134
-490 -177 -129 -39 -144 -35 -185 49 -35 72 -44 200 -19 285 17 57 67 127 91
127 8 0 80 -21 162 -46z m1376 26 c65 -51 94 -243 54 -358 -21 -60 -61 -112
-85 -112 -50 0 -559 175 -612 211 -18 12 -22 21 -17 41 6 21 22 32 81 57 92
38 515 181 537 181 9 0 28 -9 42 -20z m-873 -315 c7 -9 10 -27 7 -43 -13 -63
-236 -522 -275 -566 -13 -14 -27 -17 -58 -13 -100 11 -222 108 -274 219 -34
72 -38 110 -12 136 20 20 296 162 452 233 113 52 141 57 160 34z m327 -32
c132 -57 431 -209 456 -230 66 -60 -53 -261 -196 -333 -72 -36 -118 -39 -146
-8 -25 26 -243 463 -268 535 -14 43 -15 54 -4 67 20 24 41 20 158 -31z m-203
-25 c34 -53 206 -551 206 -596 0 -89 -238 -146 -384 -91 -64 24 -110 70 -101
103 54 187 186 566 208 594 16 20 55 14 71 -10z"/>
<path d="M14080 24129 c-311 -31 -608 -217 -765 -482 -100 -166 -147 -337
-147 -532 0 -276 97 -517 287 -711 178 -182 383 -279 640 -304 300 -28 608 83
820 296 123 123 224 306 266 481 28 114 30 338 5 458 -83 390 -411 710 -797
779 -117 20 -210 25 -309 15z m238 -176 c30 -10 68 -30 85 -45 26 -25 29 -33
23 -67 -14 -91 -185 -570 -211 -591 -8 -6 -24 -10 -37 -8 -18 2 -29 20 -56 83
-55 130 -183 525 -177 544 26 83 230 129 373 84z m-486 -140 c23 -26 158 -288
223 -432 57 -127 64 -165 33 -185 -25 -15 -57 -2 -346 140 -283 139 -285 141
-264 221 27 99 116 198 222 247 64 30 111 33 132 9z m846 -8 c67 -31 170 -133
200 -197 32 -68 30 -121 -5 -146 -99 -69 -538 -276 -574 -270 -40 6 -45 31
-20 95 41 102 239 497 261 521 27 29 71 28 138 -3z m-1081 -491 c170 -53 407
-139 441 -160 13 -9 22 -24 22 -39 0 -15 -9 -30 -22 -39 -29 -18 -349 -134
-490 -177 -129 -39 -144 -35 -185 49 -35 72 -44 200 -19 285 17 57 67 127 91
127 8 0 80 -21 162 -46z m1376 26 c65 -51 94 -243 54 -358 -21 -60 -61 -112
-85 -112 -50 0 -559 175 -612 211 -18 12 -22 21 -17 41 6 21 22 32 81 57 92
38 515 181 537 181 9 0 28 -9 42 -20z m-873 -315 c7 -9 10 -27 7 -43 -13 -63
-236 -522 -275 -566 -13 -14 -27 -17 -58 -13 -100 11 -222 108 -274 219 -34
72 -38 110 -12 136 20 20 296 162 452 233 113 52 141 57 160 34z m327 -32
c132 -57 431 -209 456 -230 66 -60 -53 -261 -196 -333 -72 -36 -118 -39 -146
-8 -25 26 -243 463 -268 535 -14 43 -15 54 -4 67 20 24 41 20 158 -31z m-203
-25 c34 -53 206 -551 206 -596 0 -89 -238 -146 -384 -91 -64 24 -110 70 -101
103 54 187 186 566 208 594 16 20 55 14 71 -10z"/>
<path d="M15916 23558 c-186 -389 -106 -860 198 -1164 259 -259 626 -357 994
-263 82 20 303 125 310 146 2 7 -22 40 -54 73 -53 56 -60 60 -91 54 -66 -12
-75 -4 -151 138 -46 86 -87 149 -117 178 -25 24 -45 42 -45 40 0 -3 27 -86 60
-184 33 -99 60 -191 60 -204 0 -89 -238 -146 -384 -91 -64 24 -110 70 -101
103 29 100 105 333 141 430 37 100 43 122 31 133 -11 11 -21 -5 -62 -94 -68
-151 -194 -399 -218 -430 -17 -22 -26 -25 -62 -21 -101 12 -223 109 -275 220
-34 72 -38 110 -12 136 19 19 350 189 462 238 79 34 75 31 62 47 -10 11 -42 3
-184 -49 -95 -34 -221 -77 -280 -95 -129 -39 -144 -35 -185 49 -35 72 -44 200
-19 285 17 58 67 127 92 127 7 0 83 -22 169 -49 85 -26 155 -47 155 -46 0 8
-193 156 -232 179 -26 15 -50 35 -53 44 -5 15 -121 112 -161 135 -9 5 -23 -12
-48 -65z"/>
<path d="M12750 22079 c-311 -31 -608 -217 -765 -482 -100 -166 -147 -337
-147 -532 0 -276 97 -517 287 -711 178 -182 383 -279 640 -304 300 -28 608 83
820 296 123 123 224 306 266 481 28 114 30 338 5 458 -83 390 -411 710 -797
779 -117 20 -210 25 -309 15z m238 -176 c30 -10 68 -30 85 -45 26 -25 29 -33
23 -67 -14 -91 -185 -570 -211 -591 -8 -6 -24 -10 -37 -8 -18 2 -29 20 -56 83
-55 130 -183 525 -177 544 26 83 230 129 373 84z m-486 -140 c23 -26 158 -288
223 -432 57 -127 64 -165 33 -185 -25 -15 -57 -2 -346 140 -283 139 -285 141
-264 221 27 99 116 198 222 247 64 30 111 33 132 9z m846 -8 c67 -31 170 -133
200 -197 32 -68 30 -121 -5 -146 -99 -69 -538 -276 -574 -270 -40 6 -45 31
-20 95 41 102 239 497 261 521 27 29 71 28 138 -3z m-1081 -491 c170 -53 407
-139 441 -160 13 -9 22 -24 22 -39 0 -15 -9 -30 -22 -39 -29 -18 -349 -134
-490 -177 -129 -39 -144 -35 -185 49 -35 72 -44 200 -19 285 17 57 67 127 91
127 8 0 80 -21 162 -46z m1376 26 c65 -51 94 -243 54 -358 -21 -60 -61 -112
-85 -112 -50 0 -559 175 -612 211 -18 12 -22 21 -17 41 6 21 22 32 81 57 92
38 515 181 537 181 9 0 28 -9 42 -20z m-873 -315 c7 -9 10 -27 7 -43 -13 -63
-236 -522 -275 -566 -13 -14 -27 -17 -58 -13 -100 11 -222 108 -274 219 -34
72 -38 110 -12 136 20 20 296 162 452 233 113 52 141 57 160 34z m327 -32
c132 -57 431 -209 456 -230 66 -60 -53 -261 -196 -333 -72 -36 -118 -39 -146
-8 -25 26 -243 463 -268 535 -14 43 -15 54 -4 67 20 24 41 20 158 -31z m-203
-25 c34 -53 206 -551 206 -596 0 -89 -238 -146 -384 -91 -64 24 -110 70 -101
103 54 187 186 566 208 594 16 20 55 14 71 -10z"/>
<path d="M15400 22079 c-311 -31 -608 -217 -765 -482 -100 -166 -147 -337
-147 -532 0 -276 97 -517 287 -711 178 -182 383 -279 640 -304 300 -28 608 83
820 296 123 123 224 306 266 481 28 114 30 338 5 458 -83 390 -411 710 -797
779 -117 20 -210 25 -309 15z m238 -176 c30 -10 68 -30 85 -45 26 -25 29 -33
23 -67 -14 -91 -185 -570 -211 -591 -8 -6 -24 -10 -37 -8 -18 2 -29 20 -56 83
-55 130 -183 525 -177 544 26 83 230 129 373 84z m-486 -140 c23 -26 158 -288
223 -432 57 -127 64 -165 33 -185 -25 -15 -57 -2 -346 140 -283 139 -285 141
-264 221 27 99 116 198 222 247 64 30 111 33 132 9z m846 -8 c67 -31 170 -133
200 -197 32 -68 30 -121 -5 -146 -99 -69 -538 -276 -574 -270 -40 6 -45 31
-20 95 41 102 239 497 261 521 27 29 71 28 138 -3z m-1081 -491 c170 -53 407
-139 441 -160 13 -9 22 -24 22 -39 0 -15 -9 -30 -22 -39 -29 -18 -349 -134
-490 -177 -129 -39 -144 -35 -185 49 -35 72 -44 200 -19 285 17 57 67 127 91
127 8 0 80 -21 162 -46z m1376 26 c65 -51 94 -243 54 -358 -21 -60 -61 -112
-85 -112 -50 0 -559 175 -612 211 -18 12 -22 21 -17 41 6 21 22 32 81 57 92
38 515 181 537 181 9 0 28 -9 42 -20z m-873 -315 c7 -9 10 -27 7 -43 -13 -63
-236 -522 -275 -566 -13 -14 -27 -17 -58 -13 -100 11 -222 108 -274 219 -34
72 -38 110 -12 136 20 20 296 162 452 233 113 52 141 57 160 34z m327 -32
c132 -57 431 -209 456 -230 66 -60 -53 -261 -196 -333 -72 -36 -118 -39 -146
-8 -25 26 -243 463 -268 535 -14 43 -15 54 -4 67 20 24 41 20 158 -31z m-203
-25 c34 -53 206 -551 206 -596 0 -89 -238 -146 -384 -91 -64 24 -110 70 -101
103 54 187 186 566 208 594 16 20 55 14 71 -10z"/>
<path d="M17595 21918 c-109 -70 -247 -212 -310 -319 -100 -170 -147 -339
-147 -534 0 -276 97 -517 287 -711 262 -268 631 -368 1002 -273 131 33 342
146 405 216 16 18 15 22 -26 91 l-43 72 -23 -25 c-33 -35 -136 -85 -176 -85
-21 0 -41 8 -53 22 -25 26 -243 463 -268 535 -14 43 -15 54 -4 67 20 24 42 20
151 -28 l101 -44 -20 31 c-14 23 -38 39 -83 57 -94 37 -112 51 -105 81 4 14
18 31 32 37 39 18 22 43 -24 36 -52 -8 -68 12 -52 65 10 37 7 71 -8 71 -3 -1
-15 -20 -26 -43 -17 -35 -25 -42 -50 -42 -27 0 -32 6 -61 75 -17 41 -55 144
-84 228 -52 150 -56 157 -138 260 -127 159 -173 212 -186 212 -7 0 -48 -23
-91 -52z m207 -155 c23 -26 158 -288 223 -432 57 -127 64 -165 33 -185 -25
-15 -57 -2 -346 140 -283 139 -285 141 -264 221 27 99 116 198 222 247 64 30
111 33 132 9z m-235 -499 c170 -53 407 -139 441 -160 13 -9 22 -24 22 -39 0
-15 -9 -30 -22 -39 -29 -18 -349 -134 -490 -177 -129 -39 -144 -35 -185 49
-35 72 -44 200 -19 285 17 57 67 127 91 127 8 0 80 -21 162 -46z m503 -289 c7
-9 10 -27 7 -43 -13 -63 -236 -522 -275 -566 -13 -14 -27 -17 -58 -13 -100 11
-222 108 -274 219 -34 72 -38 110 -12 136 20 20 296 162 452 233 113 52 141
57 160 34z m124 -57 c34 -53 206 -551 206 -596 0 -89 -238 -146 -384 -91 -64
24 -110 70 -101 103 54 187 186 566 208 594 16 20 55 14 71 -10z"/>
<path d="M11430 20029 c-311 -31 -608 -217 -765 -482 -100 -166 -147 -337
-147 -532 0 -276 97 -517 287 -711 178 -182 383 -279 640 -304 300 -28 608 83
820 296 123 123 224 306 266 481 28 114 30 338 5 458 -83 390 -411 710 -797
779 -117 20 -210 25 -309 15z m238 -176 c30 -10 68 -30 85 -45 26 -25 29 -33
23 -67 -14 -91 -185 -570 -211 -591 -8 -6 -24 -10 -37 -8 -18 2 -29 20 -56 83
-55 130 -183 525 -177 544 26 83 230 129 373 84z m-486 -140 c23 -26 158 -288
223 -432 57 -127 64 -165 33 -185 -25 -15 -57 -2 -346 140 -283 139 -285 141
-264 221 27 99 116 198 222 247 64 30 111 33 132 9z m846 -8 c67 -31 170 -133
200 -197 32 -68 30 -121 -5 -146 -99 -69 -538 -276 -574 -270 -40 6 -45 31
-20 95 41 102 239 497 261 521 27 29 71 28 138 -3z m-1081 -491 c170 -53 407
-139 441 -160 13 -9 22 -24 22 -39 0 -15 -9 -30 -22 -39 -29 -18 -349 -134
-490 -177 -129 -39 -144 -35 -185 49 -35 72 -44 200 -19 285 17 57 67 127 91
127 8 0 80 -21 162 -46z m1376 26 c65 -51 94 -243 54 -358 -21 -60 -61 -112
-85 -112 -50 0 -559 175 -612 211 -18 12 -22 21 -17 41 6 21 22 32 81 57 92
38 515 181 537 181 9 0 28 -9 42 -20z m-873 -315 c7 -9 10 -27 7 -43 -13 -63
-236 -522 -275 -566 -13 -14 -27 -17 -58 -13 -100 11 -222 108 -274 219 -34
72 -38 110 -12 136 20 20 296 162 452 233 113 52 141 57 160 34z m327 -32
c132 -57 431 -209 456 -230 66 -60 -53 -261 -196 -333 -72 -36 -118 -39 -146
-8 -25 26 -243 463 -268 535 -14 43 -15 54 -4 67 20 24 41 20 158 -31z m-203
-25 c34 -53 206 -551 206 -596 0 -89 -238 -146 -384 -91 -64 24 -110 70 -101
103 54 187 186 566 208 594 16 20 55 14 71 -10z"/>
<path d="M14080 20029 c-311 -31 -608 -217 -765 -482 -100 -166 -147 -337
-147 -532 0 -276 97 -517 287 -711 178 -182 383 -279 640 -304 300 -28 608 83
820 296 123 123 224 306 266 481 28 114 30 338 5 458 -83 390 -411 710 -797
779 -117 20 -210 25 -309 15z m238 -176 c30 -10 68 -30 85 -45 26 -25 29 -33
23 -67 -14 -91 -185 -570 -211 -591 -8 -6 -24 -10 -37 -8 -18 2 -29 20 -56 83
-55 130 -183 525 -177 544 26 83 230 129 373 84z m-486 -140 c23 -26 158 -288
223 -432 57 -127 64 -165 33 -185 -25 -15 -57 -2 -346 140 -283 139 -285 141
-264 221 27 99 116 198 222 247 64 30 111 33 132 9z m846 -8 c67 -31 170 -133
200 -197 32 -68 30 -121 -5 -146 -99 -69 -538 -276 -574 -270 -40 6 -45 31
-20 95 41 102 239 497 261 521 27 29 71 28 138 -3z m-1081 -491 c170 -53 407
-139 441 -160 13 -9 22 -24 22 -39 0 -15 -9 -30 -22 -39 -29 -18 -349 -134
-490 -177 -129 -39 -144 -35 -185 49 -35 72 -44 200 -19 285 17 57 67 127 91
127 8 0 80 -21 162 -46z m1376 26 c65 -51 94 -243 54 -358 -21 -60 -61 -112
-85 -112 -50 0 -559 175 -612 211 -18 12 -22 21 -17 41 6 21 22 32 81 57 92
38 515 181 537 181 9 0 28 -9 42 -20z m-873 -315 c7 -9 10 -27 7 -43 -13 -63
-236 -522 -275 -566 -13 -14 -27 -17 -58 -13 -100 11 -222 108 -274 219 -34
72 -38 110 -12 136 20 20 296 162 452 233 113 52 141 57 160 34z m327 -32
c132 -57 431 -209 456 -230 66 -60 -53 -261 -196 -333 -72 -36 -118 -39 -146
-8 -25 26 -243 463 -268 535 -14 43 -15 54 -4 67 20 24 41 20 158 -31z m-203
-25 c34 -53 206 -551 206 -596 0 -89 -238 -146 -384 -91 -64 24 -110 70 -101
103 54 187 186 566 208 594 16 20 55 14 71 -10z"/>
<path d="M16730 20029 c-311 -31 -608 -217 -765 -482 -100 -166 -147 -337
-147 -532 0 -276 97 -517 287 -711 178 -182 383 -279 640 -304 300 -28 608 83
820 296 123 123 224 306 266 481 28 114 30 338 5 458 -83 390 -411 710 -797
779 -117 20 -210 25 -309 15z m238 -176 c30 -10 68 -30 85 -45 26 -25 29 -33
23 -67 -14 -91 -185 -570 -211 -591 -8 -6 -24 -10 -37 -8 -18 2 -29 20 -56 83
-55 130 -183 525 -177 544 26 83 230 129 373 84z m-486 -140 c23 -26 158 -288
223 -432 57 -127 64 -165 33 -185 -25 -15 -57 -2 -346 140 -283 139 -285 141
-264 221 27 99 116 198 222 247 64 30 111 33 132 9z m846 -8 c67 -31 170 -133
200 -197 32 -68 30 -121 -5 -146 -99 -69 -538 -276 -574 -270 -40 6 -45 31
-20 95 41 102 239 497 261 521 27 29 71 28 138 -3z m-1081 -491 c170 -53 407
-139 441 -160 13 -9 22 -24 22 -39 0 -15 -9 -30 -22 -39 -29 -18 -349 -134
-490 -177 -129 -39 -144 -35 -185 49 -35 72 -44 200 -19 285 17 57 67 127 91
127 8 0 80 -21 162 -46z m1376 26 c65 -51 94 -243 54 -358 -21 -60 -61 -112
-85 -112 -50 0 -559 175 -612 211 -18 12 -22 21 -17 41 6 21 22 32 81 57 92
38 515 181 537 181 9 0 28 -9 42 -20z m-873 -315 c7 -9 10 -27 7 -43 -13 -63
-236 -522 -275 -566 -13 -14 -27 -17 -58 -13 -100 11 -222 108 -274 219 -34
72 -38 110 -12 136 20 20 296 162 452 233 113 52 141 57 160 34z m327 -32
c132 -57 431 -209 456 -230 66 -60 -53 -261 -196 -333 -72 -36 -118 -39 -146
-8 -25 26 -243 463 -268 535 -14 43 -15 54 -4 67 20 24 41 20 158 -31z m-203
-25 c34 -53 206 -551 206 -596 0 -89 -238 -146 -384 -91 -64 24 -110 70 -101
103 54 187 186 566 208 594 16 20 55 14 71 -10z"/>
<path d="M18977 19900 c-208 -121 -361 -301 -443 -520 -48 -125 -66 -227 -66
-365 0 -276 97 -517 287 -711 178 -182 383 -279 641 -304 129 -12 286 4 403
41 42 14 44 3 -52 279 -126 362 -264 710 -404 1020 -97 214 -279 586 -290 593
-5 3 -40 -11 -76 -33z m155 -187 c23 -26 158 -288 223 -432 57 -127 64 -165
33 -185 -25 -15 -57 -2 -346 140 -283 139 -285 141 -264 221 27 99 116 198
222 247 64 30 111 33 132 9z m-235 -499 c170 -53 407 -139 441 -160 13 -9 22
-24 22 -39 0 -15 -9 -30 -22 -39 -29 -18 -349 -134 -490 -177 -129 -39 -144
-35 -185 49 -35 72 -44 200 -19 285 17 57 67 127 91 127 8 0 80 -21 162 -46z
m503 -289 c7 -9 10 -27 7 -43 -13 -63 -236 -522 -275 -566 -13 -14 -27 -17
-58 -13 -100 11 -222 108 -274 219 -34 72 -38 110 -12 136 20 20 296 162 452
233 113 52 141 57 160 34z m124 -57 c34 -53 206 -551 206 -596 0 -89 -238
-146 -384 -91 -64 24 -110 70 -101 103 54 187 186 566 208 594 16 20 55 14 71
-10z"/>
<path d="M12750 17979 c-311 -31 -608 -217 -765 -482 -100 -166 -147 -337
-147 -532 0 -276 97 -517 287 -711 178 -182 383 -279 640 -304 300 -28 608 83
820 296 123 123 224 306 266 481 28 114 30 338 5 458 -83 390 -411 710 -797
779 -117 20 -210 25 -309 15z m238 -176 c30 -10 68 -30 85 -45 26 -25 29 -33
23 -67 -14 -91 -185 -570 -211 -591 -8 -6 -24 -10 -37 -8 -18 2 -29 20 -56 83
-55 130 -183 525 -177 544 26 83 230 129 373 84z m-486 -140 c23 -26 158 -288
223 -432 57 -127 64 -165 33 -185 -25 -15 -57 -2 -346 140 -283 139 -285 141
-264 221 27 99 116 198 222 247 64 30 111 33 132 9z m846 -8 c67 -31 170 -133
200 -197 32 -68 30 -121 -5 -146 -99 -69 -538 -276 -574 -270 -40 6 -45 31
-20 95 41 102 239 497 261 521 27 29 71 28 138 -3z m-1081 -491 c170 -53 407
-139 441 -160 13 -9 22 -24 22 -39 0 -15 -9 -30 -22 -39 -29 -18 -349 -134
-490 -177 -129 -39 -144 -35 -185 49 -35 72 -44 200 -19 285 17 57 67 127 91
127 8 0 80 -21 162 -46z m1376 26 c65 -51 94 -243 54 -358 -21 -60 -61 -112
-85 -112 -50 0 -559 175 -612 211 -18 12 -22 21 -17 41 6 21 22 32 81 57 92
38 515 181 537 181 9 0 28 -9 42 -20z m-873 -315 c7 -9 10 -27 7 -43 -13 -63
-236 -522 -275 -566 -13 -14 -27 -17 -58 -13 -100 11 -222 108 -274 219 -34
72 -38 110 -12 136 20 20 296 162 452 233 113 52 141 57 160 34z m327 -32
c132 -57 431 -209 456 -230 66 -60 -53 -261 -196 -333 -72 -36 -118 -39 -146
-8 -25 26 -243 463 -268 535 -14 43 -15 54 -4 67 20 24 41 20 158 -31z m-203
-25 c34 -53 206 -551 206 -596 0 -89 -238 -146 -384 -91 -64 24 -110 70 -101
103 54 187 186 566 208 594 16 20 55 14 71 -10z"/>
<path d="M15400 17979 c-311 -31 -608 -217 -765 -482 -100 -166 -147 -337
-147 -532 0 -276 97 -517 287 -711 178 -182 383 -279 640 -304 300 -28 608 83
820 296 123 123 224 306 266 481 28 114 30 338 5 458 -83 390 -411 710 -797
779 -117 20 -210 25 -309 15z m238 -176 c30 -10 68 -30 85 -45 26 -25 29 -33
23 -67 -14 -91 -185 -570 -211 -591 -8 -6 -24 -10 -37 -8 -18 2 -29 20 -56 83
-55 130 -183 525 -177 544 26 83 230 129 373 84z m-486 -140 c23 -26 158 -288
223 -432 57 -127 64 -165 33 -185 -25 -15 -57 -2 -346 140 -283 139 -285 141
-264 221 27 99 116 198 222 247 64 30 111 33 132 9z m846 -8 c67 -31 170 -133
200 -197 32 -68 30 -121 -5 -146 -99 -69 -538 -276 -574 -270 -40 6 -45 31
-20 95 41 102 239 497 261 521 27 29 71 28 138 -3z m-1081 -491 c170 -53 407
-139 441 -160 13 -9 22 -24 22 -39 0 -15 -9 -30 -22 -39 -29 -18 -349 -134
-490 -177 -129 -39 -144 -35 -185 49 -35 72 -44 200 -19 285 17 57 67 127 91
127 8 0 80 -21 162 -46z m1376 26 c65 -51 94 -243 54 -358 -21 -60 -61 -112
-85 -112 -50 0 -559 175 -612 211 -18 12 -22 21 -17 41 6 21 22 32 81 57 92
38 515 181 537 181 9 0 28 -9 42 -20z m-873 -315 c7 -9 10 -27 7 -43 -13 -63
-236 -522 -275 -566 -13 -14 -27 -17 -58 -13 -100 11 -222 108 -274 219 -34
72 -38 110 -12 136 20 20 296 162 452 233 113 52 141 57 160 34z m327 -32
c132 -57 431 -209 456 -230 66 -60 -53 -261 -196 -333 -72 -36 -118 -39 -146
-8 -25 26 -243 463 -268 535 -14 43 -15 54 -4 67 20 24 41 20 158 -31z m-203
-25 c34 -53 206 -551 206 -596 0 -89 -238 -146 -384 -91 -64 24 -110 70 -101
103 54 187 186 566 208 594 16 20 55 14 71 -10z"/>
<path d="M18050 17979 c-311 -31 -608 -217 -765 -482 -100 -166 -147 -337
-147 -532 0 -276 97 -517 287 -711 178 -182 383 -279 640 -304 300 -28 608 83
820 296 123 123 224 306 266 481 28 114 30 338 5 458 -83 390 -411 710 -797
779 -117 20 -210 25 -309 15z m238 -176 c30 -10 68 -30 85 -45 26 -25 29 -33
23 -67 -14 -91 -185 -570 -211 -591 -8 -6 -24 -10 -37 -8 -18 2 -29 20 -56 83
-55 130 -183 525 -177 544 26 83 230 129 373 84z m-486 -140 c23 -26 158 -288
223 -432 57 -127 64 -165 33 -185 -25 -15 -57 -2 -346 140 -283 139 -285 141
-264 221 27 99 116 198 222 247 64 30 111 33 132 9z m846 -8 c67 -31 170 -133
200 -197 32 -68 30 -121 -5 -146 -99 -69 -538 -276 -574 -270 -40 6 -45 31
-20 95 41 102 239 497 261 521 27 29 71 28 138 -3z m-1081 -491 c170 -53 407
-139 441 -160 13 -9 22 -24 22 -39 0 -15 -9 -30 -22 -39 -29 -18 -349 -134
-490 -177 -129 -39 -144 -35 -185 49 -35 72 -44 200 -19 285 17 57 67 127 91
127 8 0 80 -21 162 -46z m1376 26 c65 -51 94 -243 54 -358 -21 -60 -61 -112
-85 -112 -50 0 -559 175 -612 211 -18 12 -22 21 -17 41 6 21 22 32 81 57 92
38 515 181 537 181 9 0 28 -9 42 -20z m-873 -315 c7 -9 10 -27 7 -43 -13 -63
-236 -522 -275 -566 -13 -14 -27 -17 -58 -13 -100 11 -222 108 -274 219 -34
72 -38 110 -12 136 20 20 296 162 452 233 113 52 141 57 160 34z m327 -32
c132 -57 431 -209 456 -230 66 -60 -53 -261 -196 -333 -72 -36 -118 -39 -146
-8 -25 26 -243 463 -268 535 -14 43 -15 54 -4 67 20 24 41 20 158 -31z m-203
-25 c34 -53 206 -551 206 -596 0 -89 -238 -146 -384 -91 -64 24 -110 70 -101
103 54 187 186 566 208 594 16 20 55 14 71 -10z"/>
<path d="M19929 17488 c-94 -160 -141 -333 -141 -523 0 -277 97 -517 287 -710
90 -92 197 -174 203 -155 2 5 -4 54 -12 109 -16 100 -17 101 -67 151 -53 53
-109 157 -109 203 0 30 20 53 69 79 30 16 31 20 25 55 -4 21 -8 41 -10 45 -3
3 -29 -1 -59 -9 -72 -21 -96 -9 -132 65 -35 72 -44 200 -19 285 17 58 67 127
92 127 8 0 14 5 14 12 0 21 -82 323 -90 331 -4 5 -27 -24 -51 -65z"/>
<path d="M11430 15929 c-311 -31 -608 -217 -765 -482 -100 -166 -147 -337
-147 -532 0 -276 97 -517 287 -711 178 -182 383 -279 640 -304 300 -28 608 83
820 296 123 123 224 306 266 481 28 114 30 338 5 458 -83 390 -411 710 -797
779 -117 20 -210 25 -309 15z m238 -176 c30 -10 68 -30 85 -45 26 -25 29 -33
23 -67 -14 -91 -185 -570 -211 -591 -8 -6 -24 -10 -37 -8 -18 2 -29 20 -56 83
-55 130 -183 525 -177 544 26 83 230 129 373 84z m-486 -140 c23 -26 158 -288
223 -432 57 -127 64 -165 33 -185 -25 -15 -57 -2 -346 140 -283 139 -285 141
-264 221 27 99 116 198 222 247 64 30 111 33 132 9z m846 -8 c67 -31 170 -133
200 -197 32 -68 30 -121 -5 -146 -99 -69 -538 -276 -574 -270 -40 6 -45 31
-20 95 41 102 239 497 261 521 27 29 71 28 138 -3z m-1081 -491 c170 -53 407
-139 441 -160 13 -9 22 -24 22 -39 0 -15 -9 -30 -22 -39 -29 -18 -349 -134
-490 -177 -129 -39 -144 -35 -185 49 -35 72 -44 200 -19 285 17 57 67 127 91
127 8 0 80 -21 162 -46z m1376 26 c65 -51 94 -243 54 -358 -21 -60 -61 -112
-85 -112 -50 0 -559 175 -612 211 -18 12 -22 21 -17 41 6 21 22 32 81 57 92
38 515 181 537 181 9 0 28 -9 42 -20z m-873 -315 c7 -9 10 -27 7 -43 -13 -63
-236 -522 -275 -566 -13 -14 -27 -17 -58 -13 -100 11 -222 108 -274 219 -34
72 -38 110 -12 136 20 20 296 162 452 233 113 52 141 57 160 34z m327 -32
c132 -57 431 -209 456 -230 66 -60 -53 -261 -196 -333 -72 -36 -118 -39 -146
-8 -25 26 -243 463 -268 535 -14 43 -15 54 -4 67 20 24 41 20 158 -31z m-203
-25 c34 -53 206 -551 206 -596 0 -89 -238 -146 -384 -91 -64 24 -110 70 -101
103 54 187 186 566 208 594 16 20 55 14 71 -10z"/>
<path d="M14080 15929 c-311 -31 -608 -217 -765 -482 -100 -166 -147 -337
-147 -532 0 -276 97 -517 287 -711 178 -182 383 -279 640 -304 300 -28 608 83
820 296 123 123 224 306 266 481 28 114 30 338 5 458 -83 390 -411 710 -797
779 -117 20 -210 25 -309 15z m238 -176 c30 -10 68 -30 85 -45 26 -25 29 -33
23 -67 -14 -91 -185 -570 -211 -591 -8 -6 -24 -10 -37 -8 -18 2 -29 20 -56 83
-55 130 -183 525 -177 544 26 83 230 129 373 84z m-486 -140 c23 -26 158 -288
223 -432 57 -127 64 -165 33 -185 -25 -15 -57 -2 -346 140 -283 139 -285 141
-264 221 27 99 116 198 222 247 64 30 111 33 132 9z m846 -8 c67 -31 170 -133
200 -197 32 -68 30 -121 -5 -146 -99 -69 -538 -276 -574 -270 -40 6 -45 31
-20 95 41 102 239 497 261 521 27 29 71 28 138 -3z m-1081 -491 c170 -53 407
-139 441 -160 13 -9 22 -24 22 -39 0 -15 -9 -30 -22 -39 -29 -18 -349 -134
-490 -177 -129 -39 -144 -35 -185 49 -35 72 -44 200 -19 285 17 57 67 127 91
127 8 0 80 -21 162 -46z m1376 26 c65 -51 94 -243 54 -358 -21 -60 -61 -112
-85 -112 -50 0 -559 175 -612 211 -18 12 -22 21 -17 41 6 21 22 32 81 57 92
38 515 181 537 181 9 0 28 -9 42 -20z m-873 -315 c7 -9 10 -27 7 -43 -13 -63
-236 -522 -275 -566 -13 -14 -27 -17 -58 -13 -100 11 -222 108 -274 219 -34
72 -38 110 -12 136 20 20 296 162 452 233 113 52 141 57 160 34z m327 -32
c132 -57 431 -209 456 -230 66 -60 -53 -261 -196 -333 -72 -36 -118 -39 -146
-8 -25 26 -243 463 -268 535 -14 43 -15 54 -4 67 20 24 41 20 158 -31z m-203
-25 c34 -53 206 -551 206 -596 0 -89 -238 -146 -384 -91 -64 24 -110 70 -101
103 54 187 186 566 208 594 16 20 55 14 71 -10z"/>
<path d="M16730 15929 c-311 -31 -608 -217 -765 -482 -100 -166 -147 -337
-147 -532 0 -276 97 -517 287 -711 178 -182 383 -279 640 -304 300 -28 608 83
820 296 123 123 224 306 266 481 28 114 30 338 5 458 -83 390 -411 710 -797
779 -117 20 -210 25 -309 15z m238 -176 c30 -10 68 -30 85 -45 26 -25 29 -33
23 -67 -14 -91 -185 -570 -211 -591 -8 -6 -24 -10 -37 -8 -18 2 -29 20 -56 83
-55 130 -183 525 -177 544 26 83 230 129 373 84z m-486 -140 c23 -26 158 -288
223 -432 57 -127 64 -165 33 -185 -25 -15 -57 -2 -346 140 -283 139 -285 141
-264 221 27 99 116 198 222 247 64 30 111 33 132 9z m846 -8 c67 -31 170 -133
200 -197 32 -68 30 -121 -5 -146 -99 -69 -538 -276 -574 -270 -40 6 -45 31
-20 95 41 102 239 497 261 521 27 29 71 28 138 -3z m-1081 -491 c170 -53 407
-139 441 -160 13 -9 22 -24 22 -39 0 -15 -9 -30 -22 -39 -29 -18 -349 -134
-490 -177 -129 -39 -144 -35 -185 49 -35 72 -44 200 -19 285 17 57 67 127 91
127 8 0 80 -21 162 -46z m1376 26 c65 -51 94 -243 54 -358 -21 -60 -61 -112
-85 -112 -50 0 -559 175 -612 211 -18 12 -22 21 -17 41 6 21 22 32 81 57 92
38 515 181 537 181 9 0 28 -9 42 -20z m-873 -315 c7 -9 10 -27 7 -43 -13 -63
-236 -522 -275 -566 -13 -14 -27 -17 -58 -13 -100 11 -222 108 -274 219 -34
72 -38 110 -12 136 20 20 296 162 452 233 113 52 141 57 160 34z m327 -32
c132 -57 431 -209 456 -230 66 -60 -53 -261 -196 -333 -72 -36 -118 -39 -146
-8 -25 26 -243 463 -268 535 -14 43 -15 54 -4 67 20 24 41 20 158 -31z m-203
-25 c34 -53 206 -551 206 -596 0 -89 -238 -146 -384 -91 -64 24 -110 70 -101
103 54 187 186 566 208 594 16 20 55 14 71 -10z"/>
<path d="M19380 15929 c-311 -31 -608 -217 -765 -482 -100 -166 -147 -337
-147 -532 0 -276 97 -517 287 -711 178 -182 383 -279 640 -304 300 -28 608 83
820 296 73 73 160 200 204 299 l32 70 -16 205 c-9 113 -27 308 -40 433 l-23
228 -42 65 c-82 124 -232 255 -380 329 -172 87 -374 124 -570 104z m238 -176
c30 -10 68 -30 85 -45 26 -25 29 -33 23 -67 -14 -91 -185 -570 -211 -591 -8
-6 -24 -10 -37 -8 -18 2 -29 20 -56 83 -55 130 -183 525 -177 544 26 83 230
129 373 84z m-486 -140 c23 -26 158 -288 223 -432 57 -127 64 -165 33 -185
-25 -15 -57 -2 -346 140 -283 139 -285 141 -264 221 27 99 116 198 222 247 64
30 111 33 132 9z m846 -8 c67 -31 170 -133 200 -197 32 -68 30 -121 -5 -146
-99 -69 -538 -276 -574 -270 -40 6 -45 31 -20 95 41 102 239 497 261 521 27
29 71 28 138 -3z m-1081 -491 c170 -53 407 -139 441 -160 13 -9 22 -24 22 -39
0 -15 -9 -30 -22 -39 -29 -18 -349 -134 -490 -177 -129 -39 -144 -35 -185 49
-35 72 -44 200 -19 285 17 57 67 127 91 127 8 0 80 -21 162 -46z m1376 26 c65
-51 94 -243 54 -358 -21 -60 -61 -112 -85 -112 -50 0 -559 175 -612 211 -18
12 -22 21 -17 41 6 21 22 32 81 57 92 38 515 181 537 181 9 0 28 -9 42 -20z
m-873 -315 c7 -9 10 -27 7 -43 -13 -63 -236 -522 -275 -566 -13 -14 -27 -17
-58 -13 -100 11 -222 108 -274 219 -34 72 -38 110 -12 136 20 20 296 162 452
233 113 52 141 57 160 34z m327 -32 c132 -57 431 -209 456 -230 66 -60 -53
-261 -196 -333 -72 -36 -118 -39 -146 -8 -25 26 -243 463 -268 535 -14 43 -15
54 -4 67 20 24 41 20 158 -31z m-203 -25 c34 -53 206 -551 206 -596 0 -89
-238 -146 -384 -91 -64 24 -110 70 -101 103 54 187 186 566 208 594 16 20 55
14 71 -10z"/>
<path d="M12760 13879 c-311 -31 -608 -217 -765 -482 -100 -166 -147 -337
-147 -532 0 -276 97 -517 287 -711 178 -182 383 -279 640 -304 300 -28 608 83
820 296 123 123 224 306 266 481 28 114 30 338 5 458 -83 390 -411 710 -797
779 -117 20 -210 25 -309 15z m238 -176 c30 -10 68 -30 85 -45 26 -25 29 -33
23 -67 -14 -91 -185 -570 -211 -591 -8 -6 -24 -10 -37 -8 -18 2 -29 20 -56 83
-55 130 -183 525 -177 544 26 83 230 129 373 84z m-486 -140 c23 -26 158 -288
223 -432 57 -127 64 -165 33 -185 -25 -15 -57 -2 -346 140 -283 139 -285 141
-264 221 27 99 116 198 222 247 64 30 111 33 132 9z m846 -8 c67 -31 170 -133
200 -197 32 -68 30 -121 -5 -146 -99 -69 -538 -276 -574 -270 -40 6 -45 31
-20 95 41 102 239 497 261 521 27 29 71 28 138 -3z m-1081 -491 c170 -53 407
-139 441 -160 13 -9 22 -24 22 -39 0 -15 -9 -30 -22 -39 -29 -18 -349 -134
-490 -177 -129 -39 -144 -35 -185 49 -35 72 -44 200 -19 285 17 57 67 127 91
127 8 0 80 -21 162 -46z m1376 26 c65 -51 94 -243 54 -358 -21 -60 -61 -112
-85 -112 -50 0 -559 175 -612 211 -18 12 -22 21 -17 41 6 21 22 32 81 57 92
38 515 181 537 181 9 0 28 -9 42 -20z m-873 -315 c7 -9 10 -27 7 -43 -13 -63
-236 -522 -275 -566 -13 -14 -27 -17 -58 -13 -100 11 -222 108 -274 219 -34
72 -38 110 -12 136 20 20 296 162 452 233 113 52 141 57 160 34z m327 -32
c132 -57 431 -209 456 -230 66 -60 -53 -261 -196 -333 -72 -36 -118 -39 -146
-8 -25 26 -243 463 -268 535 -14 43 -15 54 -4 67 20 24 41 20 158 -31z m-203
-25 c34 -53 206 -551 206 -596 0 -89 -238 -146 -384 -91 -64 24 -110 70 -101
103 54 187 186 566 208 594 16 20 55 14 71 -10z"/>
<path d="M15410 13879 c-311 -31 -608 -217 -765 -482 -100 -166 -147 -337
-147 -532 0 -276 97 -517 287 -711 178 -182 383 -279 640 -304 300 -28 608 83
820 296 123 123 224 306 266 481 28 114 30 338 5 458 -83 390 -411 710 -797
779 -117 20 -210 25 -309 15z m238 -176 c30 -10 68 -30 85 -45 26 -25 29 -33
23 -67 -14 -91 -185 -570 -211 -591 -8 -6 -24 -10 -37 -8 -18 2 -29 20 -56 83
-55 130 -183 525 -177 544 26 83 230 129 373 84z m-486 -140 c23 -26 158 -288
223 -432 57 -127 64 -165 33 -185 -25 -15 -57 -2 -346 140 -283 139 -285 141
-264 221 27 99 116 198 222 247 64 30 111 33 132 9z m846 -8 c67 -31 170 -133
200 -197 32 -68 30 -121 -5 -146 -99 -69 -538 -276 -574 -270 -40 6 -45 31
-20 95 41 102 239 497 261 521 27 29 71 28 138 -3z m-1081 -491 c170 -53 407
-139 441 -160 13 -9 22 -24 22 -39 0 -15 -9 -30 -22 -39 -29 -18 -349 -134
-490 -177 -129 -39 -144 -35 -185 49 -35 72 -44 200 -19 285 17 57 67 127 91
127 8 0 80 -21 162 -46z m1376 26 c65 -51 94 -243 54 -358 -21 -60 -61 -112
-85 -112 -50 0 -559 175 -612 211 -18 12 -22 21 -17 41 6 21 22 32 81 57 92
38 515 181 537 181 9 0 28 -9 42 -20z m-873 -315 c7 -9 10 -27 7 -43 -13 -63
-236 -522 -275 -566 -13 -14 -27 -17 -58 -13 -100 11 -222 108 -274 219 -34
72 -38 110 -12 136 20 20 296 162 452 233 113 52 141 57 160 34z m327 -32
c132 -57 431 -209 456 -230 66 -60 -53 -261 -196 -333 -72 -36 -118 -39 -146
-8 -25 26 -243 463 -268 535 -14 43 -15 54 -4 67 20 24 41 20 158 -31z m-203
-25 c34 -53 206 -551 206 -596 0 -89 -238 -146 -384 -91 -64 24 -110 70 -101
103 54 187 186 566 208 594 16 20 55 14 71 -10z"/>
<path d="M18060 13879 c-311 -31 -608 -217 -765 -482 -100 -166 -147 -337
-147 -532 0 -276 97 -517 287 -711 178 -182 383 -279 640 -304 300 -28 608 83
820 296 123 123 224 306 266 481 28 114 30 338 5 458 -83 390 -411 710 -797
779 -117 20 -210 25 -309 15z m238 -176 c30 -10 68 -30 85 -45 26 -25 29 -33
23 -67 -14 -91 -185 -570 -211 -591 -8 -6 -24 -10 -37 -8 -18 2 -29 20 -56 83
-55 130 -183 525 -177 544 26 83 230 129 373 84z m-486 -140 c23 -26 158 -288
223 -432 57 -127 64 -165 33 -185 -25 -15 -57 -2 -346 140 -283 139 -285 141
-264 221 27 99 116 198 222 247 64 30 111 33 132 9z m846 -8 c67 -31 170 -133
200 -197 32 -68 30 -121 -5 -146 -99 -69 -538 -276 -574 -270 -40 6 -45 31
-20 95 41 102 239 497 261 521 27 29 71 28 138 -3z m-1081 -491 c170 -53 407
-139 441 -160 13 -9 22 -24 22 -39 0 -15 -9 -30 -22 -39 -29 -18 -349 -134
-490 -177 -129 -39 -144 -35 -185 49 -35 72 -44 200 -19 285 17 57 67 127 91
127 8 0 80 -21 162 -46z m1376 26 c65 -51 94 -243 54 -358 -21 -60 -61 -112
-85 -112 -50 0 -559 175 -612 211 -18 12 -22 21 -17 41 6 21 22 32 81 57 92
38 515 181 537 181 9 0 28 -9 42 -20z m-873 -315 c7 -9 10 -27 7 -43 -13 -63
-236 -522 -275 -566 -13 -14 -27 -17 -58 -13 -100 11 -222 108 -274 219 -34
72 -38 110 -12 136 20 20 296 162 452 233 113 52 141 57 160 34z m327 -32
c132 -57 431 -209 456 -230 66 -60 -53 -261 -196 -333 -72 -36 -118 -39 -146
-8 -25 26 -243 463 -268 535 -14 43 -15 54 -4 67 20 24 41 20 158 -31z m-203
-25 c34 -53 206 -551 206 -596 0 -89 -238 -146 -384 -91 -64 24 -110 70 -101
103 54 187 186 566 208 594 16 20 55 14 71 -10z"/>
<path d="M20359 13777 c-283 -142 -479 -398 -544 -712 -22 -105 -22 -295 0
-400 38 -184 127 -359 248 -490 59 -64 190 -175 208 -175 4 0 12 42 18 92 l12
92 -28 20 c-85 60 -173 191 -173 259 0 38 20 54 143 117 102 53 107 56 107 88
0 17 -3 32 -6 32 -4 0 -63 -18 -131 -40 -69 -22 -133 -40 -142 -40 -81 0 -139
219 -97 363 17 57 67 127 91 127 8 0 80 -21 161 -46 117 -36 149 -43 155 -32
20 31 5 45 -127 112 -155 79 -165 90 -146 163 33 121 165 245 289 271 l38 8
10 117 c6 64 8 117 5 117 -3 0 -44 -19 -91 -43z"/>
<path d="M11410 11829 c-311 -31 -608 -217 -765 -482 -100 -166 -147 -337
-147 -532 0 -276 97 -517 287 -711 178 -182 383 -279 640 -304 300 -28 608 83
820 296 123 123 224 306 266 481 28 114 30 338 5 458 -83 390 -411 710 -797
779 -117 20 -210 25 -309 15z m238 -176 c30 -10 68 -30 85 -45 26 -25 29 -33
23 -67 -14 -91 -185 -570 -211 -591 -8 -6 -24 -10 -37 -8 -18 2 -29 20 -56 83
-55 130 -183 525 -177 544 26 83 230 129 373 84z m-486 -140 c23 -26 158 -288
223 -432 57 -127 64 -165 33 -185 -25 -15 -57 -2 -346 140 -283 139 -285 141
-264 221 27 99 116 198 222 247 64 30 111 33 132 9z m846 -8 c67 -31 170 -133
200 -197 32 -68 30 -121 -5 -146 -99 -69 -538 -276 -574 -270 -40 6 -45 31
-20 95 41 102 239 497 261 521 27 29 71 28 138 -3z m-1081 -491 c170 -53 407
-139 441 -160 13 -9 22 -24 22 -39 0 -15 -9 -30 -22 -39 -29 -18 -349 -134
-490 -177 -129 -39 -144 -35 -185 49 -35 72 -44 200 -19 285 17 57 67 127 91
127 8 0 80 -21 162 -46z m1376 26 c65 -51 94 -243 54 -358 -21 -60 -61 -112
-85 -112 -50 0 -559 175 -612 211 -18 12 -22 21 -17 41 6 21 22 32 81 57 92
38 515 181 537 181 9 0 28 -9 42 -20z m-873 -315 c7 -9 10 -27 7 -43 -13 -63
-236 -522 -275 -566 -13 -14 -27 -17 -58 -13 -100 11 -222 108 -274 219 -34
72 -38 110 -12 136 20 20 296 162 452 233 113 52 141 57 160 34z m327 -32
c132 -57 431 -209 456 -230 66 -60 -53 -261 -196 -333 -72 -36 -118 -39 -146
-8 -25 26 -243 463 -268 535 -14 43 -15 54 -4 67 20 24 41 20 158 -31z m-203
-25 c34 -53 206 -551 206 -596 0 -89 -238 -146 -384 -91 -64 24 -110 70 -101
103 54 187 186 566 208 594 16 20 55 14 71 -10z"/>
<path d="M14060 11829 c-311 -31 -608 -217 -765 -482 -100 -166 -147 -337
-147 -532 0 -276 97 -517 287 -711 178 -182 383 -279 640 -304 300 -28 608 83
820 296 123 123 224 306 266 481 28 114 30 338 5 458 -83 390 -411 710 -797
779 -117 20 -210 25 -309 15z m238 -176 c30 -10 68 -30 85 -45 26 -25 29 -33
23 -67 -14 -91 -185 -570 -211 -591 -8 -6 -24 -10 -37 -8 -18 2 -29 20 -56 83
-55 130 -183 525 -177 544 26 83 230 129 373 84z m-486 -140 c23 -26 158 -288
223 -432 57 -127 64 -165 33 -185 -25 -15 -57 -2 -346 140 -283 139 -285 141
-264 221 27 99 116 198 222 247 64 30 111 33 132 9z m846 -8 c67 -31 170 -133
200 -197 32 -68 30 -121 -5 -146 -99 -69 -538 -276 -574 -270 -40 6 -45 31
-20 95 41 102 239 497 261 521 27 29 71 28 138 -3z m-1081 -491 c170 -53 407
-139 441 -160 13 -9 22 -24 22 -39 0 -15 -9 -30 -22 -39 -29 -18 -349 -134
-490 -177 -129 -39 -144 -35 -185 49 -35 72 -44 200 -19 285 17 57 67 127 91
127 8 0 80 -21 162 -46z m1376 26 c65 -51 94 -243 54 -358 -21 -60 -61 -112
-85 -112 -50 0 -559 175 -612 211 -18 12 -22 21 -17 41 6 21 22 32 81 57 92
38 515 181 537 181 9 0 28 -9 42 -20z m-873 -315 c7 -9 10 -27 7 -43 -13 -63
-236 -522 -275 -566 -13 -14 -27 -17 -58 -13 -100 11 -222 108 -274 219 -34
72 -38 110 -12 136 20 20 296 162 452 233 113 52 141 57 160 34z m327 -32
c132 -57 431 -209 456 -230 66 -60 -53 -261 -196 -333 -72 -36 -118 -39 -146
-8 -25 26 -243 463 -268 535 -14 43 -15 54 -4 67 20 24 41 20 158 -31z m-203
-25 c34 -53 206 -551 206 -596 0 -89 -238 -146 -384 -91 -64 24 -110 70 -101
103 54 187 186 566 208 594 16 20 55 14 71 -10z"/>
<path d="M16710 11829 c-311 -31 -608 -217 -765 -482 -100 -166 -147 -337
-147 -532 0 -276 97 -517 287 -711 178 -182 383 -279 640 -304 300 -28 608 83
820 296 123 123 224 306 266 481 28 114 30 338 5 458 -83 390 -411 710 -797
779 -117 20 -210 25 -309 15z m238 -176 c30 -10 68 -30 85 -45 26 -25 29 -33
23 -67 -14 -91 -185 -570 -211 -591 -8 -6 -24 -10 -37 -8 -18 2 -29 20 -56 83
-55 130 -183 525 -177 544 26 83 230 129 373 84z m-486 -140 c23 -26 158 -288
223 -432 57 -127 64 -165 33 -185 -25 -15 -57 -2 -346 140 -283 139 -285 141
-264 221 27 99 116 198 222 247 64 30 111 33 132 9z m846 -8 c67 -31 170 -133
200 -197 32 -68 30 -121 -5 -146 -99 -69 -538 -276 -574 -270 -40 6 -45 31
-20 95 41 102 239 497 261 521 27 29 71 28 138 -3z m-1081 -491 c170 -53 407
-139 441 -160 13 -9 22 -24 22 -39 0 -15 -9 -30 -22 -39 -29 -18 -349 -134
-490 -177 -129 -39 -144 -35 -185 49 -35 72 -44 200 -19 285 17 57 67 127 91
127 8 0 80 -21 162 -46z m1376 26 c65 -51 94 -243 54 -358 -21 -60 -61 -112
-85 -112 -50 0 -559 175 -612 211 -18 12 -22 21 -17 41 6 21 22 32 81 57 92
38 515 181 537 181 9 0 28 -9 42 -20z m-873 -315 c7 -9 10 -27 7 -43 -13 -63
-236 -522 -275 -566 -13 -14 -27 -17 -58 -13 -100 11 -222 108 -274 219 -34
72 -38 110 -12 136 20 20 296 162 452 233 113 52 141 57 160 34z m327 -32
c132 -57 431 -209 456 -230 66 -60 -53 -261 -196 -333 -72 -36 -118 -39 -146
-8 -25 26 -243 463 -268 535 -14 43 -15 54 -4 67 20 24 41 20 158 -31z m-203
-25 c34 -53 206 -551 206 -596 0 -89 -238 -146 -384 -91 -64 24 -110 70 -101
103 54 187 186 566 208 594 16 20 55 14 71 -10z"/>
<path d="M19360 11829 c-311 -31 -608 -217 -765 -482 -100 -166 -147 -337
-147 -532 0 -139 18 -239 66 -367 93 -246 286 -452 532 -564 189 -86 427 -110
641 -66 l38 8 49 142 49 142 -37 68 c-63 115 -213 424 -232 479 -15 43 -16 54
-5 67 7 9 21 16 31 16 20 0 121 -42 282 -118 103 -48 106 -49 112 -28 3 11 6
26 6 32 0 6 -48 28 -106 49 -263 94 -290 108 -281 147 8 31 52 51 312 141
l179 62 14 48 c8 27 11 51 9 54 -3 2 -65 -27 -139 -65 -178 -94 -363 -174
-389 -170 -40 6 -45 31 -20 95 41 102 239 497 261 521 27 29 71 28 135 -2 55
-25 153 -109 174 -150 8 -14 17 -26 21 -26 4 0 16 46 27 101 l21 102 -42 39
c-197 185 -508 286 -796 257z m238 -176 c30 -10 68 -30 85 -45 26 -25 29 -33
23 -67 -14 -91 -185 -570 -211 -591 -8 -6 -24 -10 -37 -8 -18 2 -29 20 -56 83
-55 130 -183 525 -177 544 26 83 230 129 373 84z m-486 -140 c23 -26 158 -288
223 -432 57 -127 64 -165 33 -185 -25 -15 -57 -2 -346 140 -283 139 -285 141
-264 221 27 99 116 198 222 247 64 30 111 33 132 9z m-235 -499 c170 -53 407
-139 441 -160 13 -9 22 -24 22 -39 0 -15 -9 -30 -22 -39 -29 -18 -349 -134
-490 -177 -129 -39 -144 -35 -185 49 -35 72 -44 200 -19 285 17 57 67 127 91
127 8 0 80 -21 162 -46z m503 -289 c7 -9 10 -27 7 -43 -13 -63 -236 -522 -275
-566 -13 -14 -27 -17 -58 -13 -100 11 -222 108 -274 219 -34 72 -38 110 -12
136 20 20 296 162 452 233 113 52 141 57 160 34z m124 -57 c34 -53 206 -551
206 -596 0 -89 -238 -146 -384 -91 -64 24 -110 70 -101 103 54 187 186 566
208 594 16 20 55 14 71 -10z"/>
<path d="M12750 9779 c-311 -31 -608 -217 -765 -482 -100 -166 -147 -337 -147
-532 0 -276 97 -517 287 -711 178 -182 383 -279 640 -304 300 -28 608 83 820
296 123 123 224 306 266 481 28 114 30 338 5 458 -83 390 -411 710 -797 779
-117 20 -210 25 -309 15z m238 -176 c30 -10 68 -30 85 -45 26 -25 29 -33 23
-67 -14 -91 -185 -570 -211 -591 -8 -6 -24 -10 -37 -8 -18 2 -29 20 -56 83
-55 130 -183 525 -177 544 26 83 230 129 373 84z m-486 -140 c23 -26 158 -288
223 -432 57 -127 64 -165 33 -185 -25 -15 -57 -2 -346 140 -283 139 -285 141
-264 221 27 99 116 198 222 247 64 30 111 33 132 9z m846 -8 c67 -31 170 -133
200 -197 32 -68 30 -121 -5 -146 -99 -69 -538 -276 -574 -270 -40 6 -45 31
-20 95 41 102 239 497 261 521 27 29 71 28 138 -3z m-1081 -491 c170 -53 407
-139 441 -160 13 -9 22 -24 22 -39 0 -15 -9 -30 -22 -39 -29 -18 -349 -134
-490 -177 -129 -39 -144 -35 -185 49 -35 72 -44 200 -19 285 17 57 67 127 91
127 8 0 80 -21 162 -46z m1376 26 c65 -51 94 -243 54 -358 -21 -60 -61 -112
-85 -112 -50 0 -559 175 -612 211 -18 12 -22 21 -17 41 6 21 22 32 81 57 92
38 515 181 537 181 9 0 28 -9 42 -20z m-873 -315 c7 -9 10 -27 7 -43 -13 -63
-236 -522 -275 -566 -13 -14 -27 -17 -58 -13 -100 11 -222 108 -274 219 -34
72 -38 110 -12 136 20 20 296 162 452 233 113 52 141 57 160 34z m327 -32
c132 -57 431 -209 456 -230 66 -60 -53 -261 -196 -333 -72 -36 -118 -39 -146
-8 -25 26 -243 463 -268 535 -14 43 -15 54 -4 67 20 24 41 20 158 -31z m-203
-25 c34 -53 206 -551 206 -596 0 -89 -238 -146 -384 -91 -64 24 -110 70 -101
103 54 187 186 566 208 594 16 20 55 14 71 -10z"/>
<path d="M15400 9779 c-311 -31 -608 -217 -765 -482 -100 -166 -147 -337 -147
-532 0 -276 97 -517 287 -711 178 -182 383 -279 640 -304 300 -28 608 83 820
296 123 123 224 306 266 481 28 114 30 338 5 458 -83 390 -411 710 -797 779
-117 20 -210 25 -309 15z m238 -176 c30 -10 68 -30 85 -45 26 -25 29 -33 23
-67 -14 -91 -185 -570 -211 -591 -8 -6 -24 -10 -37 -8 -18 2 -29 20 -56 83
-55 130 -183 525 -177 544 26 83 230 129 373 84z m-486 -140 c23 -26 158 -288
223 -432 57 -127 64 -165 33 -185 -25 -15 -57 -2 -346 140 -283 139 -285 141
-264 221 27 99 116 198 222 247 64 30 111 33 132 9z m846 -8 c67 -31 170 -133
200 -197 32 -68 30 -121 -5 -146 -99 -69 -538 -276 -574 -270 -40 6 -45 31
-20 95 41 102 239 497 261 521 27 29 71 28 138 -3z m-1081 -491 c170 -53 407
-139 441 -160 13 -9 22 -24 22 -39 0 -15 -9 -30 -22 -39 -29 -18 -349 -134
-490 -177 -129 -39 -144 -35 -185 49 -35 72 -44 200 -19 285 17 57 67 127 91
127 8 0 80 -21 162 -46z m1376 26 c65 -51 94 -243 54 -358 -21 -60 -61 -112
-85 -112 -50 0 -559 175 -612 211 -18 12 -22 21 -17 41 6 21 22 32 81 57 92
38 515 181 537 181 9 0 28 -9 42 -20z m-873 -315 c7 -9 10 -27 7 -43 -13 -63
-236 -522 -275 -566 -13 -14 -27 -17 -58 -13 -100 11 -222 108 -274 219 -34
72 -38 110 -12 136 20 20 296 162 452 233 113 52 141 57 160 34z m327 -32
c132 -57 431 -209 456 -230 66 -60 -53 -261 -196 -333 -72 -36 -118 -39 -146
-8 -25 26 -243 463 -268 535 -14 43 -15 54 -4 67 20 24 41 20 158 -31z m-203
-25 c34 -53 206 -551 206 -596 0 -89 -238 -146 -384 -91 -64 24 -110 70 -101
103 54 187 186 566 208 594 16 20 55 14 71 -10z"/>
<path d="M18050 9779 c-311 -31 -608 -217 -765 -482 -100 -166 -147 -337 -147
-532 0 -276 97 -517 287 -711 178 -182 383 -279 640 -304 302 -29 612 84 825
301 53 54 81 96 153 232 113 214 129 270 129 472 1 173 -15 264 -67 394 -129
318 -419 557 -746 615 -117 20 -210 25 -309 15z m238 -176 c30 -10 68 -30 85
-45 26 -25 29 -33 23 -67 -14 -91 -185 -570 -211 -591 -8 -6 -24 -10 -37 -8
-18 2 -29 20 -56 83 -55 130 -183 525 -177 544 26 83 230 129 373 84z m-486
-140 c23 -26 158 -288 223 -432 57 -127 64 -165 33 -185 -25 -15 -57 -2 -346
140 -283 139 -285 141 -264 221 27 99 116 198 222 247 64 30 111 33 132 9z
m846 -8 c67 -31 170 -133 200 -197 32 -68 30 -121 -5 -146 -99 -69 -538 -276
-574 -270 -40 6 -45 31 -20 95 41 102 239 497 261 521 27 29 71 28 138 -3z
m-1081 -491 c170 -53 407 -139 441 -160 13 -9 22 -24 22 -39 0 -15 -9 -30 -22
-39 -29 -18 -349 -134 -490 -177 -129 -39 -144 -35 -185 49 -35 72 -44 200
-19 285 17 57 67 127 91 127 8 0 80 -21 162 -46z m1376 26 c65 -51 94 -243 54
-358 -21 -60 -61 -112 -85 -112 -50 0 -559 175 -612 211 -18 12 -22 21 -17 41
6 21 22 32 81 57 92 38 515 181 537 181 9 0 28 -9 42 -20z m-873 -315 c7 -9
10 -27 7 -43 -13 -63 -236 -522 -275 -566 -13 -14 -27 -17 -58 -13 -100 11
-222 108 -274 219 -34 72 -38 110 -12 136 20 20 296 162 452 233 113 52 141
57 160 34z m327 -32 c132 -57 431 -209 456 -230 66 -60 -53 -261 -196 -333
-72 -36 -118 -39 -146 -8 -25 26 -243 463 -268 535 -14 43 -15 54 -4 67 20 24
41 20 158 -31z m-203 -25 c34 -53 206 -551 206 -596 0 -89 -238 -146 -384 -91
-64 24 -110 70 -101 103 54 187 186 566 208 594 16 20 55 14 71 -10z"/>
<path d="M11430 7729 c-311 -31 -608 -217 -765 -482 -100 -166 -147 -337 -147
-532 0 -276 97 -517 287 -711 178 -182 383 -279 640 -304 300 -28 608 83 820
296 123 123 224 306 266 481 28 114 30 338 5 458 -83 390 -411 710 -797 779
-117 20 -210 25 -309 15z m238 -176 c30 -10 68 -30 85 -45 26 -25 29 -33 23
-67 -14 -91 -185 -570 -211 -591 -8 -6 -24 -10 -37 -8 -18 2 -29 20 -56 83
-55 130 -183 525 -177 544 26 83 230 129 373 84z m-486 -140 c23 -26 158 -288
223 -432 57 -127 64 -165 33 -185 -25 -15 -57 -2 -346 140 -283 139 -285 141
-264 221 27 99 116 198 222 247 64 30 111 33 132 9z m846 -8 c67 -31 170 -133
200 -197 32 -68 30 -121 -5 -146 -99 -69 -538 -276 -574 -270 -40 6 -45 31
-20 95 41 102 239 497 261 521 27 29 71 28 138 -3z m-1081 -491 c170 -53 407
-139 441 -160 13 -9 22 -24 22 -39 0 -15 -9 -30 -22 -39 -29 -18 -349 -134
-490 -177 -129 -39 -144 -35 -185 49 -35 72 -44 200 -19 285 17 57 67 127 91
127 8 0 80 -21 162 -46z m1376 26 c65 -51 94 -243 54 -358 -21 -60 -61 -112
-85 -112 -50 0 -559 175 -612 211 -18 12 -22 21 -17 41 6 21 22 32 81 57 92
38 515 181 537 181 9 0 28 -9 42 -20z m-873 -315 c7 -9 10 -27 7 -43 -13 -63
-236 -522 -275 -566 -13 -14 -27 -17 -58 -13 -100 11 -222 108 -274 219 -34
72 -38 110 -12 136 20 20 296 162 452 233 113 52 141 57 160 34z m327 -32
c132 -57 431 -209 456 -230 66 -60 -53 -261 -196 -333 -72 -36 -118 -39 -146
-8 -25 26 -243 463 -268 535 -14 43 -15 54 -4 67 20 24 41 20 158 -31z m-203
-25 c34 -53 206 -551 206 -596 0 -89 -238 -146 -384 -91 -64 24 -110 70 -101
103 54 187 186 566 208 594 16 20 55 14 71 -10z"/>
<path d="M14080 7729 c-311 -31 -608 -217 -765 -482 -100 -166 -147 -337 -147
-532 0 -276 97 -517 287 -711 178 -182 383 -279 640 -304 300 -28 608 83 820
296 123 123 224 306 266 481 28 114 30 338 5 458 -83 390 -411 710 -797 779
-117 20 -210 25 -309 15z m238 -176 c30 -10 68 -30 85 -45 26 -25 29 -33 23
-67 -14 -91 -185 -570 -211 -591 -8 -6 -24 -10 -37 -8 -18 2 -29 20 -56 83
-55 130 -183 525 -177 544 26 83 230 129 373 84z m-486 -140 c23 -26 158 -288
223 -432 57 -127 64 -165 33 -185 -25 -15 -57 -2 -346 140 -283 139 -285 141
-264 221 27 99 116 198 222 247 64 30 111 33 132 9z m846 -8 c67 -31 170 -133
200 -197 32 -68 30 -121 -5 -146 -99 -69 -538 -276 -574 -270 -40 6 -45 31
-20 95 41 102 239 497 261 521 27 29 71 28 138 -3z m-1081 -491 c170 -53 407
-139 441 -160 13 -9 22 -24 22 -39 0 -15 -9 -30 -22 -39 -29 -18 -349 -134
-490 -177 -129 -39 -144 -35 -185 49 -35 72 -44 200 -19 285 17 57 67 127 91
127 8 0 80 -21 162 -46z m1376 26 c65 -51 94 -243 54 -358 -21 -60 -61 -112
-85 -112 -50 0 -559 175 -612 211 -18 12 -22 21 -17 41 6 21 22 32 81 57 92
38 515 181 537 181 9 0 28 -9 42 -20z m-873 -315 c7 -9 10 -27 7 -43 -13 -63
-236 -522 -275 -566 -13 -14 -27 -17 -58 -13 -100 11 -222 108 -274 219 -34
72 -38 110 -12 136 20 20 296 162 452 233 113 52 141 57 160 34z m327 -32
c132 -57 431 -209 456 -230 66 -60 -53 -261 -196 -333 -72 -36 -118 -39 -146
-8 -25 26 -243 463 -268 535 -14 43 -15 54 -4 67 20 24 41 20 158 -31z m-203
-25 c34 -53 206 -551 206 -596 0 -89 -238 -146 -384 -91 -64 24 -110 70 -101
103 54 187 186 566 208 594 16 20 55 14 71 -10z"/>
<path d="M16730 7729 c-311 -31 -608 -217 -765 -482 -100 -166 -147 -337 -147
-532 0 -139 18 -239 66 -367 93 -247 286 -452 532 -564 256 -116 586 -117 837
-1 67 31 84 45 179 153 58 66 167 192 241 282 l136 164 22 91 c28 119 30 341
5 462 -83 390 -411 710 -797 779 -117 20 -210 25 -309 15z m238 -176 c30 -10
68 -30 85 -45 26 -25 29 -33 23 -67 -14 -91 -185 -570 -211 -591 -8 -6 -24
-10 -37 -8 -18 2 -29 20 -56 83 -55 130 -183 525 -177 544 26 83 230 129 373
84z m-486 -140 c23 -26 158 -288 223 -432 57 -127 64 -165 33 -185 -25 -15
-57 -2 -346 140 -283 139 -285 141 -264 221 27 99 116 198 222 247 64 30 111
33 132 9z m846 -8 c67 -31 170 -133 200 -197 32 -68 30 -121 -5 -146 -99 -69
-538 -276 -574 -270 -40 6 -45 31 -20 95 41 102 239 497 261 521 27 29 71 28
138 -3z m-1081 -491 c170 -53 407 -139 441 -160 13 -9 22 -24 22 -39 0 -15 -9
-30 -22 -39 -29 -18 -349 -134 -490 -177 -129 -39 -144 -35 -185 49 -35 72
-44 200 -19 285 17 57 67 127 91 127 8 0 80 -21 162 -46z m1376 26 c65 -51 94
-243 54 -358 -21 -60 -61 -112 -85 -112 -50 0 -559 175 -612 211 -18 12 -22
21 -17 41 6 21 22 32 81 57 92 38 515 181 537 181 9 0 28 -9 42 -20z m-873
-315 c7 -9 10 -27 7 -43 -13 -63 -236 -522 -275 -566 -13 -14 -27 -17 -58 -13
-100 11 -222 108 -274 219 -34 72 -38 110 -12 136 20 20 296 162 452 233 113
52 141 57 160 34z m327 -32 c132 -57 431 -209 456 -230 66 -60 -53 -261 -196
-333 -72 -36 -118 -39 -146 -8 -25 26 -243 463 -268 535 -14 43 -15 54 -4 67
20 24 41 20 158 -31z m-203 -25 c34 -53 206 -551 206 -596 0 -89 -238 -146
-384 -91 -64 24 -110 70 -101 103 54 187 186 566 208 594 16 20 55 14 71 -10z"/>
<path d="M12750 5679 c-311 -31 -608 -217 -765 -482 -100 -166 -147 -337 -147
-532 0 -276 97 -517 287 -711 178 -182 383 -279 640 -304 300 -28 608 83 820
296 123 123 224 306 266 481 28 114 30 338 5 458 -83 390 -411 710 -797 779
-117 20 -210 25 -309 15z m238 -176 c30 -10 68 -30 85 -45 26 -25 29 -33 23
-67 -14 -91 -185 -570 -211 -591 -8 -6 -24 -10 -37 -8 -18 2 -29 20 -56 83
-55 130 -183 525 -177 544 26 83 230 129 373 84z m-486 -140 c23 -26 158 -288
223 -432 57 -127 64 -165 33 -185 -25 -15 -57 -2 -346 140 -283 139 -285 141
-264 221 27 99 116 198 222 247 64 30 111 33 132 9z m846 -8 c67 -31 170 -133
200 -197 32 -68 30 -121 -5 -146 -99 -69 -538 -276 -574 -270 -40 6 -45 31
-20 95 41 102 239 497 261 521 27 29 71 28 138 -3z m-1081 -491 c170 -53 407
-139 441 -160 13 -9 22 -24 22 -39 0 -15 -9 -30 -22 -39 -29 -18 -349 -134
-490 -177 -129 -39 -144 -35 -185 49 -35 72 -44 200 -19 285 17 57 67 127 91
127 8 0 80 -21 162 -46z m1376 26 c65 -51 94 -243 54 -358 -21 -60 -61 -112
-85 -112 -50 0 -559 175 -612 211 -18 12 -22 21 -17 41 6 21 22 32 81 57 92
38 515 181 537 181 9 0 28 -9 42 -20z m-873 -315 c7 -9 10 -27 7 -43 -13 -63
-236 -522 -275 -566 -13 -14 -27 -17 -58 -13 -100 11 -222 108 -274 219 -34
72 -38 110 -12 136 20 20 296 162 452 233 113 52 141 57 160 34z m327 -32
c132 -57 431 -209 456 -230 66 -60 -53 -261 -196 -333 -72 -36 -118 -39 -146
-8 -25 26 -243 463 -268 535 -14 43 -15 54 -4 67 20 24 41 20 158 -31z m-203
-25 c34 -53 206 -551 206 -596 0 -89 -238 -146 -384 -91 -64 24 -110 70 -101
103 54 187 186 566 208 594 16 20 55 14 71 -10z"/>
<path d="M15400 5679 c-311 -31 -608 -217 -765 -482 -100 -166 -147 -337 -147
-532 0 -284 98 -520 299 -723 l102 -103 83 52 c104 64 105 65 72 73 -42 11
-131 74 -169 120 -42 51 -85 141 -85 179 0 15 9 36 20 47 22 22 473 248 538
270 50 16 75 7 80 -28 4 -25 -53 -158 -158 -369 l-75 -152 35 21 c81 49 88 57
110 126 36 109 122 336 133 350 15 19 54 14 70 -8 8 -11 29 -61 48 -110 18
-50 36 -90 39 -90 3 0 12 4 20 10 12 8 11 16 -9 62 -55 128 -66 165 -52 182
21 25 43 20 167 -35 115 -51 116 -52 135 -32 20 19 19 20 -101 64 -144 53
-165 67 -156 102 5 20 21 31 80 56 97 40 516 181 539 181 10 0 31 -13 47 -28
l28 -29 59 50 c106 89 100 73 60 165 -178 411 -597 656 -1047 611z m238 -176
c30 -10 68 -30 85 -45 26 -25 29 -33 23 -67 -14 -91 -185 -570 -211 -591 -8
-6 -24 -10 -37 -8 -18 2 -29 20 -56 83 -55 130 -183 525 -177 544 26 83 230
129 373 84z m-486 -140 c23 -26 158 -288 223 -432 57 -127 64 -165 33 -185
-25 -15 -57 -2 -346 140 -283 139 -285 141 -264 221 27 99 116 198 222 247 64
30 111 33 132 9z m846 -8 c67 -31 170 -133 200 -197 32 -68 30 -121 -5 -146
-99 -69 -538 -276 -574 -270 -40 6 -45 31 -20 95 41 102 239 497 261 521 27
29 71 28 138 -3z m-1081 -491 c170 -53 407 -139 441 -160 13 -9 22 -24 22 -39
0 -15 -9 -30 -22 -39 -29 -18 -349 -134 -490 -177 -129 -39 -144 -35 -185 49
-35 72 -44 200 -19 285 17 57 67 127 91 127 8 0 80 -21 162 -46z"/>
<path d="M11430 3629 c-311 -31 -608 -217 -765 -482 -100 -166 -147 -337 -147
-532 0 -139 18 -239 66 -367 93 -247 286 -452 532 -564 253 -115 579 -117 831
-4 64 28 81 43 159 132 48 55 149 164 225 243 152 156 166 178 200 321 28 116
30 339 5 459 -83 390 -411 710 -797 779 -117 20 -210 25 -309 15z m238 -176
c30 -10 68 -30 85 -45 26 -25 29 -33 23 -67 -14 -91 -185 -570 -211 -591 -8
-6 -24 -10 -37 -8 -18 2 -29 20 -56 83 -55 130 -183 525 -177 544 26 83 230
129 373 84z m-486 -140 c23 -26 158 -288 223 -432 57 -127 64 -165 33 -185
-25 -15 -57 -2 -346 140 -283 139 -285 141 -264 221 27 99 116 198 222 247 64
30 111 33 132 9z m846 -8 c67 -31 170 -133 200 -197 32 -68 30 -121 -5 -146
-99 -69 -538 -276 -574 -270 -40 6 -45 31 -20 95 41 102 239 497 261 521 27
29 71 28 138 -3z m-1081 -491 c170 -53 407 -139 441 -160 13 -9 22 -24 22 -39
0 -15 -9 -30 -22 -39 -29 -18 -349 -134 -490 -177 -129 -39 -144 -35 -185 49
-35 72 -44 200 -19 285 17 57 67 127 91 127 8 0 80 -21 162 -46z m1376 26 c65
-51 94 -243 54 -358 -21 -60 -61 -112 -85 -112 -50 0 -559 175 -612 211 -18
12 -22 21 -17 41 6 21 22 32 81 57 92 38 515 181 537 181 9 0 28 -9 42 -20z
m-873 -315 c7 -9 10 -27 7 -43 -13 -63 -236 -522 -275 -566 -13 -14 -27 -17
-58 -13 -100 11 -222 108 -274 219 -34 72 -38 110 -12 136 20 20 296 162 452
233 113 52 141 57 160 34z m327 -32 c132 -57 431 -209 456 -230 66 -60 -53
-261 -196 -333 -72 -36 -118 -39 -146 -8 -25 26 -243 463 -268 535 -14 43 -15
54 -4 67 20 24 41 20 158 -31z m-203 -25 c34 -53 206 -551 206 -596 0 -89
-238 -146 -384 -91 -64 24 -110 70 -101 103 54 187 186 566 208 594 16 20 55
14 71 -10z"/>
<path d="M14080 3629 c-352 -35 -660 -252 -815 -574 -29 -61 -90 -244 -83
-250 2 -1 66 42 142 95 139 97 139 98 153 150 27 105 115 204 226 255 77 36
115 31 146 -17 l24 -38 41 23 c23 13 40 28 39 33 -1 5 -5 22 -8 37 -6 22 -1
33 27 61 43 43 118 66 214 66 70 0 75 2 180 62 119 68 119 68 -1 86 -110 17
-193 20 -285 11z"/>
</g>
</svg>
